<svg width="180" height="180" viewBox="0 0 100 100" fill="none" xmlns="http://www.w3.org/2000/svg">
  <defs>
    <linearGradient id="ios-bg" x1="0%" y1="0%" x2="100%" y2="100%">
      <stop offset="0%" stop-color="#1E1560"/>
      <stop offset="50%" stop-color="#0D0D20"/>
      <stop offset="100%" stop-color="#071220"/>
    </linearGradient>
    <linearGradient id="primary" x1="0%" y1="0%" x2="100%" y2="100%">
      <stop offset="0%" stop-color="#9B7DFF"/>
      <stop offset="50%" stop-color="#7B61FF"/>
      <stop offset="100%" stop-color="#00E5FF"/>
    </linearGradient>
    <linearGradient id="scan" x1="0%" y1="0%" x2="100%" y2="0%">
      <stop offset="0%" stop-color="#00E5FF" stop-opacity="0"/>
      <stop offset="30%" stop-color="#00E5FF" stop-opacity="0.9"/>
      <stop offset="70%" stop-color="#7B61FF" stop-opacity="0.9"/>
      <stop offset="100%" stop-color="#7B61FF" stop-opacity="0"/>
    </linearGradient>
  </defs>
  <rect width="100" height="100" fill="url(#ios-bg)"/>
  <line x1="0" y1="50" x2="100" y2="50" stroke="rgba(123,97,255,0.1)" stroke-width="0.5"/>
  <line x1="50" y1="0" x2="50" y2="100" stroke="rgba(123,97,255,0.1)" stroke-width="0.5"/>
  <path d="M50 18 L72 30.5 L72 56 L50 68 L28 56 L28 30.5 Z" fill="url(#primary)" opacity="0.1"/>
  <path d="M50 18 L72 30.5 L72 56 L50 68 L28 56 L28 30.5 Z" stroke="url(#primary)" stroke-width="1.8" fill="none"/>
  <rect x="18" y="42" width="64" height="2.5" rx="1.25" fill="url(#scan)" opacity="0.9"/>
  <line x1="34" y1="29" x2="20" y2="15" stroke="#9B7DFF" stroke-width="2" stroke-linecap="round"/>
  <circle cx="20" cy="15" r="3.5" fill="#1A1530"/>
  <circle cx="20" cy="15" r="3.5" stroke="#9B7DFF" stroke-width="1.5"/>
  <circle cx="20" cy="15" r="1.5" fill="#9B7DFF"/>
  <line x1="66" y1="29" x2="80" y2="15" stroke="#00E5FF" stroke-width="2" stroke-linecap="round"/>
  <circle cx="80" cy="15" r="3.5" fill="#1A1530"/>
  <circle cx="80" cy="15" r="3.5" stroke="#00E5FF" stroke-width="1.5"/>
  <circle cx="80" cy="15" r="1.5" fill="#00E5FF"/>
  <line x1="28" y1="37" x2="14" y2="33" stroke="#7B61FF" stroke-width="1.6" stroke-linecap="round" opacity="0.8"/>
  <line x1="28" y1="44" x2="12" y2="44" stroke="#7B61FF" stroke-width="1.6" stroke-linecap="round" opacity="0.8"/>
  <line x1="28" y1="51" x2="14" y2="55" stroke="#7B61FF" stroke-width="1.6" stroke-linecap="round" opacity="0.8"/>
  <circle cx="14" cy="33" r="1.5" fill="#7B61FF" opacity="0.6"/>
  <circle cx="12" cy="44" r="1.5" fill="#7B61FF" opacity="0.6"/>
  <circle cx="14" cy="55" r="1.5" fill="#7B61FF" opacity="0.6"/>
  <line x1="72" y1="37" x2="86" y2="33" stroke="#00E5FF" stroke-width="1.6" stroke-linecap="round" opacity="0.8"/>
  <line x1="72" y1="44" x2="88" y2="44" stroke="#00E5FF" stroke-width="1.6" stroke-linecap="round" opacity="0.8"/>
  <line x1="72" y1="51" x2="86" y2="55" stroke="#00E5FF" stroke-width="1.6" stroke-linecap="round" opacity="0.8"/>
  <circle cx="86" cy="33" r="1.5" fill="#00E5FF" opacity="0.6"/>
  <circle cx="88" cy="44" r="1.5" fill="#00E5FF" opacity="0.6"/>
  <circle cx="86" cy="55" r="1.5" fill="#00E5FF" opacity="0.6"/>
  <circle cx="42" cy="35" r="2.5" fill="#00E5FF" opacity="0.85"/>
  <circle cx="42" cy="35" r="1" fill="white"/>
  <circle cx="58" cy="35" r="2.5" fill="#9B7DFF" opacity="0.85"/>
  <circle cx="58" cy="35" r="1" fill="white"/>
  <circle cx="50" cy="43" r="4.5" fill="url(#primary)"/>
  <circle cx="50" cy="43" r="2" fill="white" opacity="0.95"/>
</svg>
