<svg width="32" height="32" viewBox="0 0 96 96" fill="none" xmlns="http://www.w3.org/2000/svg">
  <defs>
    <linearGradient id="bg" x1="0%" y1="0%" x2="100%" y2="100%">
      <stop offset="0%" stop-color="#1A1530"/>
      <stop offset="100%" stop-color="#0B0B0F"/>
    </linearGradient>
    <linearGradient id="primary" x1="0%" y1="0%" x2="100%" y2="100%">
      <stop offset="0%" stop-color="#9B7DFF"/>
      <stop offset="50%" stop-color="#7B61FF"/>
      <stop offset="100%" stop-color="#00E5FF"/>
    </linearGradient>
    <linearGradient id="scan" x1="0%" y1="0%" x2="100%" y2="0%">
      <stop offset="0%" stop-color="#00E5FF" stop-opacity="0"/>
      <stop offset="30%" stop-color="#00E5FF" stop-opacity="0.9"/>
      <stop offset="70%" stop-color="#7B61FF" stop-opacity="0.9"/>
      <stop offset="100%" stop-color="#7B61FF" stop-opacity="0"/>
    </linearGradient>
  </defs>
  <rect x="4" y="4" width="88" height="88" rx="22" fill="url(#bg)"/>
  <rect x="4" y="4" width="88" height="88" rx="22" fill="none" stroke="url(#primary)" stroke-width="1.2" opacity="0.35"/>
  <path d="M48 20 L66 30 L66 52 L48 62 L30 52 L30 30 Z" fill="url(#primary)" opacity="0.12"/>
  <path d="M48 20 L66 30 L66 52 L48 62 L30 52 L30 30 Z" fill="none" stroke="url(#primary)" stroke-width="1.6"/>
  <rect x="22" y="40" width="52" height="2.5" rx="1.25" fill="url(#scan)" opacity="0.9"/>
  <line x1="34" y1="29" x2="21" y2="16" stroke="#9B7DFF" stroke-width="2" stroke-linecap="round"/>
  <circle cx="21" cy="16" r="3" fill="#9B7DFF"/>
  <circle cx="21" cy="16" r="1.2" fill="white"/>
  <line x1="62" y1="29" x2="75" y2="16" stroke="#00E5FF" stroke-width="2" stroke-linecap="round"/>
  <circle cx="75" cy="16" r="3" fill="#00E5FF"/>
  <circle cx="75" cy="16" r="1.2" fill="white"/>
  <line x1="30" y1="36" x2="17" y2="32" stroke="#7B61FF" stroke-width="1.5" stroke-linecap="round" opacity="0.75"/>
  <line x1="30" y1="43" x2="15" y2="43" stroke="#7B61FF" stroke-width="1.5" stroke-linecap="round" opacity="0.75"/>
  <line x1="30" y1="50" x2="17" y2="54" stroke="#7B61FF" stroke-width="1.5" stroke-linecap="round" opacity="0.75"/>
  <line x1="66" y1="36" x2="79" y2="32" stroke="#00E5FF" stroke-width="1.5" stroke-linecap="round" opacity="0.75"/>
  <line x1="66" y1="43" x2="81" y2="43" stroke="#00E5FF" stroke-width="1.5" stroke-linecap="round" opacity="0.75"/>
  <line x1="66" y1="50" x2="79" y2="54" stroke="#00E5FF" stroke-width="1.5" stroke-linecap="round" opacity="0.75"/>
  <circle cx="48" cy="41" r="4.5" fill="url(#primary)"/>
  <circle cx="48" cy="41" r="1.9" fill="white"/>
  <circle cx="41" cy="34" r="2.2" fill="#00E5FF" opacity="0.9"/>
  <circle cx="41" cy="34" r="0.9" fill="white"/>
  <circle cx="55" cy="34" r="2.2" fill="#9B7DFF" opacity="0.9"/>
  <circle cx="55" cy="34" r="0.9" fill="white"/>
</svg>
