<svg width="16" height="16" viewBox="0 0 16 16" fill="none" xmlns="http://www.w3.org/2000/svg">
  <defs>
    <linearGradient id="bg" x1="0%" y1="0%" x2="100%" y2="100%">
      <stop offset="0%" stop-color="#1A1530"/>
      <stop offset="100%" stop-color="#0B0B0F"/>
    </linearGradient>
    <linearGradient id="primary" x1="0%" y1="0%" x2="100%" y2="100%">
      <stop offset="0%" stop-color="#9B7DFF"/>
      <stop offset="100%" stop-color="#00E5FF"/>
    </linearGradient>
    <linearGradient id="scan" x1="0%" y1="0%" x2="100%" y2="0%">
      <stop offset="0%" stop-color="#00E5FF" stop-opacity="0"/>
      <stop offset="40%" stop-color="#00E5FF" stop-opacity="0.9"/>
      <stop offset="60%" stop-color="#7B61FF" stop-opacity="0.9"/>
      <stop offset="100%" stop-color="#7B61FF" stop-opacity="0"/>
    </linearGradient>
  </defs>
  <rect width="16" height="16" rx="3.5" fill="url(#bg)"/>
  <path d="M8 2.5 L12.5 5 L12.5 11 L8 13.5 L3.5 11 L3.5 5 Z" fill="url(#primary)" opacity="0.2"/>
  <path d="M8 2.5 L12.5 5 L12.5 11 L8 13.5 L3.5 11 L3.5 5 Z" stroke="url(#primary)" stroke-width="0.9" fill="none"/>
  <rect x="2" y="7" width="12" height="1.2" rx="0.6" fill="url(#scan)" opacity="0.9"/>
  <line x1="5" y1="4.5" x2="2" y2="1.5" stroke="#9B7DFF" stroke-width="0.9" stroke-linecap="round"/>
  <circle cx="2" cy="1.5" r="0.9" fill="#9B7DFF"/>
  <line x1="11" y1="4.5" x2="14" y2="1.5" stroke="#00E5FF" stroke-width="0.9" stroke-linecap="round"/>
  <circle cx="14" cy="1.5" r="0.9" fill="#00E5FF"/>
  <line x1="3.5" y1="6.5" x2="0.5" y2="5.5" stroke="#7B61FF" stroke-width="0.7" stroke-linecap="round" opacity="0.7"/>
  <line x1="3.5" y1="8" x2="0" y2="8" stroke="#7B61FF" stroke-width="0.7" stroke-linecap="round" opacity="0.7"/>
  <line x1="3.5" y1="9.5" x2="0.5" y2="10.5" stroke="#7B61FF" stroke-width="0.7" stroke-linecap="round" opacity="0.7"/>
  <line x1="12.5" y1="6.5" x2="15.5" y2="5.5" stroke="#00E5FF" stroke-width="0.7" stroke-linecap="round" opacity="0.7"/>
  <line x1="12.5" y1="8" x2="16" y2="8" stroke="#00E5FF" stroke-width="0.7" stroke-linecap="round" opacity="0.7"/>
  <line x1="12.5" y1="9.5" x2="15.5" y2="10.5" stroke="#00E5FF" stroke-width="0.7" stroke-linecap="round" opacity="0.7"/>
  <circle cx="8" cy="7" r="1.2" fill="url(#primary)"/>
  <circle cx="8" cy="7" r="0.5" fill="white"/>
</svg>
