<svg width="32" height="32" viewBox="0 0 32 32" fill="none" xmlns="http://www.w3.org/2000/svg">
  <defs>
    <linearGradient id="bg" x1="0%" y1="0%" x2="100%" y2="100%">
      <stop offset="0%" stop-color="#1A1530"/>
      <stop offset="100%" stop-color="#0B0B0F"/>
    </linearGradient>
    <linearGradient id="primary" x1="0%" y1="0%" x2="100%" y2="100%">
      <stop offset="0%" stop-color="#9B7DFF"/>
      <stop offset="100%" stop-color="#00E5FF"/>
    </linearGradient>
    <linearGradient id="scan" x1="0%" y1="0%" x2="100%" y2="0%">
      <stop offset="0%" stop-color="#00E5FF" stop-opacity="0"/>
      <stop offset="40%" stop-color="#00E5FF" stop-opacity="0.9"/>
      <stop offset="60%" stop-color="#7B61FF" stop-opacity="0.9"/>
      <stop offset="100%" stop-color="#7B61FF" stop-opacity="0"/>
    </linearGradient>
  </defs>
  <rect width="32" height="32" rx="7" fill="url(#bg)"/>
  <path d="M16 5 L25 10 L25 21 L16 26 L7 21 L7 10 Z" fill="url(#primary)" opacity="0.15"/>
  <path d="M16 5 L25 10 L25 21 L16 26 L7 21 L7 10 Z" fill="none" stroke="url(#primary)" stroke-width="1.2"/>
  <rect x="4" y="13.5" width="24" height="1.8" rx="0.9" fill="url(#scan)" opacity="0.9"/>
  <line x1="10" y1="9" x2="5" y2="4" stroke="#9B7DFF" stroke-width="1.2" stroke-linecap="round"/>
  <circle cx="5" cy="4" r="1.3" fill="#9B7DFF"/>
  <line x1="22" y1="9" x2="27" y2="4" stroke="#00E5FF" stroke-width="1.2" stroke-linecap="round"/>
  <circle cx="27" cy="4" r="1.3" fill="#00E5FF"/>
  <line x1="7" y1="13" x2="2" y2="11" stroke="#7B61FF" stroke-width="1" stroke-linecap="round" opacity="0.7"/>
  <line x1="7" y1="16" x2="1" y2="16" stroke="#7B61FF" stroke-width="1" stroke-linecap="round" opacity="0.7"/>
  <line x1="7" y1="19" x2="2" y2="21" stroke="#7B61FF" stroke-width="1" stroke-linecap="round" opacity="0.7"/>
  <line x1="25" y1="13" x2="30" y2="11" stroke="#00E5FF" stroke-width="1" stroke-linecap="round" opacity="0.7"/>
  <line x1="25" y1="16" x2="31" y2="16" stroke="#00E5FF" stroke-width="1" stroke-linecap="round" opacity="0.7"/>
  <line x1="25" y1="19" x2="30" y2="21" stroke="#00E5FF" stroke-width="1" stroke-linecap="round" opacity="0.7"/>
  <circle cx="16" cy="14" r="1.8" fill="url(#primary)"/>
  <circle cx="16" cy="14" r="0.7" fill="white"/>
</svg>
