<svg width="48" height="48" viewBox="0 0 48 48" fill="none" xmlns="http://www.w3.org/2000/svg">
  <defs>
    <linearGradient id="bg" x1="0%" y1="0%" x2="100%" y2="100%">
      <stop offset="0%" stop-color="#1A1530"/>
      <stop offset="100%" stop-color="#0B0B0F"/>
    </linearGradient>
    <linearGradient id="primary" x1="0%" y1="0%" x2="100%" y2="100%">
      <stop offset="0%" stop-color="#9B7DFF"/>
      <stop offset="50%" stop-color="#7B61FF"/>
      <stop offset="100%" stop-color="#00E5FF"/>
    </linearGradient>
    <linearGradient id="scan" x1="0%" y1="0%" x2="100%" y2="0%">
      <stop offset="0%" stop-color="#00E5FF" stop-opacity="0"/>
      <stop offset="30%" stop-color="#00E5FF" stop-opacity="0.9"/>
      <stop offset="70%" stop-color="#7B61FF" stop-opacity="0.9"/>
      <stop offset="100%" stop-color="#7B61FF" stop-opacity="0"/>
    </linearGradient>
  </defs>
  <rect width="48" height="48" rx="11" fill="url(#bg)"/>
  <rect x="0.5" y="0.5" width="47" height="47" rx="10.5" fill="none" stroke="url(#primary)" stroke-width="1" opacity="0.3"/>
  <path d="M24 8 L37 15 L37 30 L24 37 L11 30 L11 15 Z" fill="url(#primary)" opacity="0.12"/>
  <path d="M24 8 L37 15 L37 30 L24 37 L11 30 L11 15 Z" fill="none" stroke="url(#primary)" stroke-width="1.4"/>
  <rect x="7" y="20.5" width="34" height="2" rx="1" fill="url(#scan)" opacity="0.9"/>
  <line x1="15" y1="14" x2="9" y2="8" stroke="#9B7DFF" stroke-width="1.4" stroke-linecap="round"/>
  <circle cx="9" cy="8" r="1.8" fill="#9B7DFF"/>
  <circle cx="9" cy="8" r="0.7" fill="white"/>
  <line x1="33" y1="14" x2="39" y2="8" stroke="#00E5FF" stroke-width="1.4" stroke-linecap="round"/>
  <circle cx="39" cy="8" r="1.8" fill="#00E5FF"/>
  <circle cx="39" cy="8" r="0.7" fill="white"/>
  <line x1="11" y1="18" x2="5" y2="16" stroke="#7B61FF" stroke-width="1.1" stroke-linecap="round" opacity="0.7"/>
  <line x1="11" y1="23" x2="3" y2="23" stroke="#7B61FF" stroke-width="1.1" stroke-linecap="round" opacity="0.7"/>
  <line x1="11" y1="28" x2="5" y2="30" stroke="#7B61FF" stroke-width="1.1" stroke-linecap="round" opacity="0.7"/>
  <line x1="37" y1="18" x2="43" y2="16" stroke="#00E5FF" stroke-width="1.1" stroke-linecap="round" opacity="0.7"/>
  <line x1="37" y1="23" x2="45" y2="23" stroke="#00E5FF" stroke-width="1.1" stroke-linecap="round" opacity="0.7"/>
  <line x1="37" y1="28" x2="43" y2="30" stroke="#00E5FF" stroke-width="1.1" stroke-linecap="round" opacity="0.7"/>
  <circle cx="24" cy="21" r="2.8" fill="url(#primary)"/>
  <circle cx="24" cy="21" r="1.1" fill="white"/>
  <circle cx="20" cy="17" r="1.4" fill="#00E5FF" opacity="0.9"/>
  <circle cx="20" cy="17" r="0.56" fill="white"/>
  <circle cx="28" cy="17" r="1.4" fill="#9B7DFF" opacity="0.9"/>
  <circle cx="28" cy="17" r="0.56" fill="white"/>
</svg>
